<mxfile host="app.diagrams.net" modified="2023-08-03T03:31:04.141Z" agent="Mozilla/5.0 (Windows NT 10.0; Win64; x64) AppleWebKit/537.36 (KHTML, like Gecko) Chrome/114.0.0.0 Safari/537.36 OPR/100.0.0.0" version="21.6.6" etag="ZbJro2hcVVu6rPAbMVX3" type="github">
  <diagram name="Page-1" id="rAS7sm8_EUnQzUeavkUt">
    <mxGraphModel>
      <root>
        <mxCell id="0" />
        <mxCell id="1" parent="0" />
      </root>
    </mxGraphModel>
  </diagram>
</mxfile>
